<?xml version="1.0" encoding="utf-8"?>
<!-- Generator: Adobe Illustrator 21.0.2, SVG Export Plug-In . SVG Version: 6.00 Build 0)  -->
<svg version="1.1" id="Layer_1" xmlns="http://www.w3.org/2000/svg" xmlns:xlink="http://www.w3.org/1999/xlink" x="0px" y="0px"
	 viewBox="0 0 506.1 84.1" style="enable-background:new 0 0 506.1 84.1;" xml:space="preserve">
<style type="text/css">
	.st0{fill:#FFFFFF;}
</style>
<g>
	<g>
		<path class="st0" d="M29.1,16.3c0.2-0.5,0.5-0.8,1-0.8h8.2c0.5,0,0.7,0.3,0.5,0.8L22.4,67.8c-0.2,0.5-0.5,0.8-1,0.8h-8.2
			c-0.5,0-0.7-0.3-0.5-0.8L29.1,16.3z"/>
		<path class="st0" d="M62,16.3c0.2-0.5,0.5-0.8,1-0.8h8.2c0.5,0,0.7,0.3,0.5,0.8L55.3,67.8c-0.2,0.5-0.5,0.8-1,0.8h-8.2
			c-0.5,0-0.7-0.3-0.5-0.8L62,16.3z"/>
		<path class="st0" d="M126.8,48.9V17.1c0-0.5,0.3-0.8,0.8-0.8h9.6c0.5,0,0.8,0.3,0.8,0.8v32.1c0,6.1,3.4,9.6,8.6,9.6
			c5.1,0,8.5-3.5,8.5-9.6V17.1c0-0.5,0.3-0.8,0.8-0.8h9.6c0.5,0,0.8,0.3,0.8,0.8v31.8c0,12.8-8.2,19.7-19.7,19.7
			C134.9,68.6,126.8,61.6,126.8,48.9z"/>
		<path class="st0" d="M187.1,67.8c-0.5,0-0.8-0.3-0.8-0.8V26.7c0-0.3-0.2-0.5-0.5-0.5h-13c-0.5,0-0.8-0.3-0.8-0.8v-8.4
			c0-0.5,0.3-0.8,0.8-0.8h38c0.5,0,0.8,0.3,0.8,0.8v8.4c0,0.5-0.3,0.8-0.8,0.8h-13c-0.3,0-0.5,0.2-0.5,0.5V67c0,0.5-0.3,0.8-0.8,0.8
			H187.1z"/>
		<path class="st0" d="M216.6,56.1c-1.1-3.6-1.4-6.4-1.4-14.1s0.3-10.5,1.4-14.1c2.6-8.3,9.8-12.5,18.8-12.5c9,0,16.1,4.2,18.8,12.5
			c1.1,3.6,1.4,6.4,1.4,14.1s-0.3,10.5-1.4,14.1c-2.6,8.3-9.8,12.5-18.8,12.5C226.3,68.6,219.2,64.4,216.6,56.1z M243.4,53.1
			c0.6-1.8,0.8-4.3,0.8-11c0-6.7-0.2-9.2-0.8-11c-1.1-3.6-3.9-5.7-8.1-5.7c-4.2,0-7,2.1-8.1,5.7c-0.6,1.8-0.8,4.3-0.8,11
			c0,6.7,0.2,9.2,0.8,11c1.1,3.6,3.9,5.7,8.1,5.7C239.6,58.8,242.3,56.6,243.4,53.1z"/>
		<path class="st0" d="M264,17.1c0-0.5,0.3-0.8,0.8-0.8h9c0.6,0,1,0.2,1.2,0.8l13,29.3h0.3L301,17.1c0.2-0.5,0.6-0.8,1.2-0.8h8.8
			c0.5,0,0.8,0.3,0.8,0.8V67c0,0.5-0.3,0.8-0.8,0.8h-8.5c-0.5,0-0.8-0.3-0.8-0.8V38h-0.3L292,59.7c-0.3,0.7-0.8,1-1.4,1h-5.2
			c-0.7,0-1.1-0.3-1.4-1L274.3,38H274v29c0,0.5-0.3,0.8-0.8,0.8h-8.5c-0.5,0-0.8-0.3-0.8-0.8V17.1z"/>
		<path class="st0" d="M376.9,67.8c-0.5,0-0.8-0.3-0.8-0.8V26.7c0-0.3-0.2-0.5-0.5-0.5h-13c-0.5,0-0.8-0.3-0.8-0.8v-8.4
			c0-0.5,0.3-0.8,0.8-0.8h38c0.5,0,0.8,0.3,0.8,0.8v8.4c0,0.5-0.3,0.8-0.8,0.8h-13c-0.3,0-0.5,0.2-0.5,0.5V67c0,0.5-0.3,0.8-0.8,0.8
			H376.9z"/>
		<path class="st0" d="M406.3,56.1c-1.1-3.6-1.4-6.4-1.4-14.1s0.3-10.5,1.4-14.1c2.6-8.3,9.8-12.5,18.8-12.5s16.1,4.2,18.8,12.5
			c1.1,3.6,1.4,6.4,1.4,14.1s-0.3,10.5-1.4,14.1c-2.6,8.3-9.8,12.5-18.8,12.5S409,64.4,406.3,56.1z M433.2,53.1
			c0.6-1.8,0.8-4.3,0.8-11c0-6.7-0.2-9.2-0.8-11c-1.1-3.6-3.9-5.7-8.1-5.7c-4.2,0-7,2.1-8.1,5.7c-0.6,1.8-0.8,4.3-0.8,11
			c0,6.7,0.2,9.2,0.8,11c1.1,3.6,3.9,5.7,8.1,5.7C429.3,58.8,432.1,56.6,433.2,53.1z"/>
		<path class="st0" d="M453.7,17.1c0-0.5,0.3-0.8,0.8-0.8h9.1c0.5,0,1,0.2,1.3,0.8L483,49.5h0.4V17.1c0-0.5,0.3-0.8,0.8-0.8h8.5
			c0.5,0,0.8,0.3,0.8,0.8V67c0,0.5-0.3,0.8-0.8,0.8h-9c-0.6,0-1-0.2-1.3-0.8l-18.2-32.3h-0.4V67c0,0.5-0.3,0.8-0.8,0.8h-8.5
			c-0.5,0-0.8-0.3-0.8-0.8V17.1z"/>
	</g>
	<path class="st0" d="M122.8,67l-17.4-49.9c-0.2-0.5-0.5-0.8-1-0.8h-9.5c-0.5,0-0.8,0.3-1,0.8L76.3,67c-0.2,0.5,0,0.8,0.5,0.8h9.9
		c0.5,0,0.8-0.2,1-0.8l2.9-9h13.2l-3-9.5h-7.1l5.8-18h0.2l4.8,14.9l0,0l5.5,17.1l1.5,4.5c0.2,0.5,0.5,0.8,1,0.8h9.8
		C122.8,67.8,123,67.5,122.8,67z"/>
	<path class="st0" d="M364.4,67L347,17.1c-0.2-0.5-0.5-0.8-1-0.8h-9.5c-0.5,0-0.8,0.3-1,0.8L317.8,67c-0.2,0.5,0,0.8,0.5,0.8h9.9
		c0.5,0,0.8-0.2,1-0.8l2.9-9h13.2l-3-9.5h-7.1l5.8-18h0.2l4.8,14.9l0,0l0.8,2.5l0.2,0.7h0l3.9,12.1L353,67c0.2,0.5,0.5,0.8,1,0.8
		h9.8C364.4,67.8,364.5,67.5,364.4,67z"/>
</g>
</svg>
